<svg width="118" height="56" viewBox="0 0 118 56" fill="none" xmlns="http://www.w3.org/2000/svg">
<path fill-rule="evenodd" clip-rule="evenodd" d="M91.2698 22.9363H60L82.5886 1.9153C84.5135 0.124037 87.2814 -0.464677 89.8109 0.378362C92.3398 1.22192 94.1366 3.33344 94.4993 5.88821L98.1081 31.2746C98.2162 32.0329 98.7306 32.6305 99.4839 32.8717C100.237 33.114 101.021 32.9319 101.579 32.3882L111.265 22.9363H100.172L99.8011 20.6264H117L103.285 34.0104C102.434 34.842 101.303 35.2857 100.14 35.2857C99.6691 35.2857 99.1922 35.2124 98.7267 35.0634C97.1114 34.5458 95.9642 33.214 95.7328 31.5881L92.1242 6.20218C91.8808 4.48785 90.7228 3.12726 89.0261 2.56158C87.3298 1.99484 85.5461 2.37528 84.2539 3.57678L65.9323 20.6264H90.9325L91.2698 22.9363ZM110.538 10.897H108.363V0.0280573H110.538L114.664 7.15543H114.696V0.0280573H116.887V10.897H114.744L110.571 3.76966H110.538V10.897Z" fill="white"/>
</svg>
